<svg width="170" height="77" viewBox="0 0 170 77" fill="none" xmlns="http://www.w3.org/2000/svg">
<path d="M28.5883 8.79641C35.9053 11.741 39.3888 20.2126 36.3023 27.7471C33.2158 35.2816 24.7598 38.9486 17.4427 36.0044C10.1255 33.0599 6.64132 24.5879 9.72778 17.0533C12.8143 9.51868 21.2711 5.85189 28.5883 8.79641Z" stroke="#a54c03" stroke-width="2"/>
<path d="M33.178 40.776C40.8177 42.7367 45.381 50.679 43.3081 58.5529C41.2351 66.4267 33.3324 71.1699 25.6926 69.2095C18.0528 67.2489 13.4888 59.3064 15.5617 51.4324C17.6346 43.5584 25.5381 38.8154 33.178 40.776Z" stroke="#a54c03" stroke-width="2"/>
<path d="M63.4635 20.0553C70.106 24.2828 71.959 33.2447 67.5242 40.0902C63.0892 46.9353 54.0965 48.9941 47.4541 44.767C40.8116 40.5396 38.9575 31.5779 43.3921 24.7324C47.827 17.8869 56.8209 15.8279 63.4635 20.0553Z" stroke="#a54c03" stroke-width="2"/>
<rect width="33.1738" height="21.2465" transform="matrix(0.867799 -0.496915 0.5036 0.863937 0 16.4846)" fill="#111827"/>
<rect width="31.3212" height="22.5547" transform="matrix(-0.298198 -0.954504 0.955994 -0.293386 53.5396 49.4478)" fill="#111827"/>
<rect width="33.0683" height="22.9465" transform="matrix(0.963742 0.266836 -0.273048 0.962 14.2656 46)" fill="#111827"/>
<path d="M57.1705 49V22.8182H72.8693V25.6307H60.3409V34.4773H71.6932V37.2898H60.3409V49H57.1705ZM77.6793 49V29.3636H80.5941V32.3295H80.7987C81.1566 31.358 81.8043 30.5696 82.7418 29.9645C83.6793 29.3594 84.7362 29.0568 85.9123 29.0568C86.1339 29.0568 86.4109 29.0611 86.7433 29.0696C87.0756 29.0781 87.3271 29.0909 87.4975 29.108V32.1761C87.3952 32.1506 87.1609 32.1122 86.7944 32.0611C86.4364 32.0014 86.0572 31.9716 85.6566 31.9716C84.7021 31.9716 83.8498 32.1719 83.0998 32.5724C82.3583 32.9645 81.7702 33.5099 81.3356 34.2088C80.9094 34.8991 80.6964 35.6875 80.6964 36.5739V49H77.6793ZM96.8523 49.4602C95.608 49.4602 94.4787 49.2259 93.4645 48.7571C92.4503 48.2798 91.6449 47.5938 91.0483 46.6989C90.4517 45.7955 90.1534 44.7045 90.1534 43.4261C90.1534 42.3011 90.375 41.3892 90.8182 40.6903C91.2614 39.983 91.8537 39.429 92.5952 39.0284C93.3366 38.6278 94.1548 38.3295 95.0497 38.1335C95.9531 37.929 96.8608 37.767 97.7727 37.6477C98.9659 37.4943 99.9332 37.3793 100.675 37.3026C101.425 37.2173 101.97 37.0767 102.311 36.8807C102.661 36.6847 102.835 36.3437 102.835 35.858V35.7557C102.835 34.4943 102.49 33.5142 101.8 32.8153C101.118 32.1165 100.082 31.767 98.6932 31.767C97.2528 31.767 96.1236 32.0824 95.3054 32.7131C94.4872 33.3437 93.9119 34.017 93.5795 34.733L90.7159 33.7102C91.2273 32.517 91.9091 31.5881 92.7614 30.9233C93.6222 30.25 94.5597 29.7812 95.5739 29.517C96.5966 29.2443 97.6023 29.108 98.5909 29.108C99.2216 29.108 99.946 29.1847 100.764 29.3381C101.591 29.483 102.388 29.7855 103.155 30.2457C103.93 30.706 104.574 31.4006 105.085 32.3295C105.597 33.2585 105.852 34.5028 105.852 36.0625V49H102.835V46.3409H102.682C102.477 46.767 102.136 47.223 101.659 47.7088C101.182 48.1946 100.547 48.608 99.7543 48.9489C98.9616 49.2898 97.9943 49.4602 96.8523 49.4602ZM97.3125 46.75C98.5057 46.75 99.5114 46.5156 100.33 46.0469C101.156 45.5781 101.778 44.973 102.196 44.2315C102.622 43.4901 102.835 42.7102 102.835 41.892V39.1307C102.707 39.2841 102.426 39.4247 101.991 39.5526C101.565 39.6719 101.071 39.7784 100.509 39.8722C99.9545 39.9574 99.4134 40.0341 98.8849 40.1023C98.3651 40.1619 97.9432 40.2131 97.6193 40.2557C96.8352 40.358 96.1023 40.5241 95.4205 40.7543C94.7472 40.9759 94.2017 41.3125 93.7841 41.7642C93.375 42.2074 93.1705 42.8125 93.1705 43.5795C93.1705 44.6278 93.5582 45.4205 94.3338 45.9574C95.1179 46.4858 96.1108 46.75 97.3125 46.75ZM114.376 37.1875V49H111.359V29.3636H114.274V32.4318H114.529C114.99 31.4347 115.689 30.6335 116.626 30.0284C117.564 29.4148 118.774 29.108 120.257 29.108C121.586 29.108 122.75 29.3807 123.747 29.9261C124.744 30.4631 125.52 31.2812 126.074 32.3807C126.627 33.4716 126.904 34.8523 126.904 36.5227V49H123.887V36.7273C123.887 35.1847 123.487 33.983 122.686 33.1222C121.885 32.2528 120.785 31.8182 119.387 31.8182C118.424 31.8182 117.564 32.027 116.805 32.4446C116.055 32.8622 115.463 33.4716 115.028 34.2727C114.593 35.0739 114.376 36.0455 114.376 37.1875ZM135.23 41.8409L135.179 38.108H135.793L144.384 29.3636H148.116L138.963 38.6193H138.707L135.23 41.8409ZM132.418 49V22.8182H135.435V49H132.418ZM144.895 49L137.224 39.2841L139.372 37.1875L148.73 49H144.895ZM159.168 49.4091C157.396 49.4091 155.84 48.9872 154.502 48.1435C153.173 47.2997 152.133 46.1193 151.383 44.6023C150.641 43.0852 150.271 41.3125 150.271 39.2841C150.271 37.2386 150.641 35.4531 151.383 33.9276C152.133 32.402 153.173 31.2173 154.502 30.3736C155.84 29.5298 157.396 29.108 159.168 29.108C160.941 29.108 162.492 29.5298 163.822 30.3736C165.16 31.2173 166.2 32.402 166.941 33.9276C167.691 35.4531 168.066 37.2386 168.066 39.2841C168.066 41.3125 167.691 43.0852 166.941 44.6023C166.2 46.1193 165.16 47.2997 163.822 48.1435C162.492 48.9872 160.941 49.4091 159.168 49.4091ZM159.168 46.6989C160.515 46.6989 161.623 46.3537 162.492 45.6634C163.362 44.973 164.005 44.0653 164.423 42.9403C164.84 41.8153 165.049 40.5966 165.049 39.2841C165.049 37.9716 164.84 36.7486 164.423 35.6151C164.005 34.4815 163.362 33.5653 162.492 32.8665C161.623 32.1676 160.515 31.8182 159.168 31.8182C157.822 31.8182 156.714 32.1676 155.844 32.8665C154.975 33.5653 154.332 34.4815 153.914 35.6151C153.496 36.7486 153.288 37.9716 153.288 39.2841C153.288 40.5966 153.496 41.8153 153.914 42.9403C154.332 44.0653 154.975 44.973 155.844 45.6634C156.714 46.3537 157.822 46.6989 159.168 46.6989Z" fill="white"/>
</svg>
